<svg xmlns="http://www.w3.org/2000/svg" id="OBJECTS" viewBox="0 0 1612.94 539.02"><defs><style>      .cls-1 {        fill: #0080b5;      }    </style></defs><g><path d="M55.26,476.16c9.49,0,15.67,3.05,21.86,7.66l-5.57,10.28c-4.44-3.4-9.32-5.92-16.2-5.92-12.36,0-19.85,8.53-19.85,19.42s7.49,19.42,19.85,19.42c6.88,0,11.76-2.52,16.2-5.92l5.57,10.28c-6.18,4.61-12.37,7.66-21.86,7.66-20.64,0-33.44-14.45-33.44-31.43s12.8-31.43,33.44-31.43Z"></path><path d="M151.12,476.16c17.41,0,31.61,14.1,31.61,31.43s-14.19,31.43-31.61,31.43-31.7-14.11-31.7-31.43,14.19-31.43,31.7-31.43ZM151.12,526.66c10.01,0,18.29-7.92,18.29-19.07s-8.27-19.07-18.29-19.07-18.37,7.92-18.37,19.07,8.27,19.07,18.37,19.07Z"></path><path d="M245.05,500.97v37.01h-13.5v-60.86h10.36l26.82,36.74v-36.74h13.5v60.95h-10.28l-26.91-37.09Z"></path><path d="M342.22,518.74c1.57,5.4,5.4,8.36,11.06,8.36,4.79,0,9.14-1.74,9.14-6.27,0-2.35-1.31-4.53-7.05-6.53l-6.62-2.26c-13.5-4.61-15.5-13.06-15.5-18.11,0-10.97,8.62-17.76,20.55-17.76,9.4,0,16.72,4.53,20.38,13.32l-10.97,5.49c-2.61-6.18-6.88-6.88-9.4-6.88-4.18,0-7.4,1.65-7.4,5.66,0,1.57.43,4.44,6.53,6.53l6.44,2.26c13.67,4.27,16.11,12.45,16.2,18.03,0,12.8-11.15,18.46-21.86,18.46-11.67,0-22.29-6.62-23.51-17.94l12.02-2.35Z"></path><path d="M474.3,477.11v37.88c0,15.67-11.58,24.03-25.25,24.03s-25.16-8.36-25.16-24.03v-37.88h13.5v37.88c0,8.45,5.4,12.71,11.67,12.71s11.75-4.27,11.75-12.71v-37.88h13.5Z"></path><path d="M567.45,527.36v10.71h-41.1v-60.95h13.5v50.24h27.6Z"></path><path d="M648.42,477.11v11.32h-17.33v49.63h-13.32v-49.63h-17.15v-11.32h47.8Z"></path><path d="M721.73,476.16c17.41,0,31.61,14.1,31.61,31.43s-14.19,31.43-31.61,31.43-31.7-14.11-31.7-31.43,14.19-31.43,31.7-31.43ZM721.73,526.66c10.01,0,18.29-7.92,18.29-19.07s-8.27-19.07-18.29-19.07-18.37,7.92-18.37,19.07,8.27,19.07,18.37,19.07Z"></path><path d="M835.78,515.43c1.57,6.44,4.01,11.67,10.1,11.67,2.09,0,4.53-1.05,6.18-2.61l4.79,9.32c-4,3.13-7.31,5.22-13.58,5.22-14.45,0-18.9-16.2-19.59-22.64h-8.1v21.68h-13.41v-60.95h27.08c12.54,0,19.42,9.32,19.42,20.03,0,8.62-4.88,15.76-12.89,18.29ZM827.51,505.59c4.79,0,7.66-3.48,7.66-8.53s-2.87-8.62-7.66-8.62h-11.93v17.15h11.93Z"></path><path d="M901.94,538.07v-60.95h40.49v10.71h-26.99v14.98h23.42v10.71h-23.42v13.85h26.99v10.71h-40.49Z"></path><path d="M999.28,518.74c1.57,5.4,5.4,8.36,11.06,8.36,4.79,0,9.14-1.74,9.14-6.27,0-2.35-1.31-4.53-7.05-6.53l-6.62-2.26c-13.5-4.61-15.5-13.06-15.5-18.11,0-10.97,8.62-17.76,20.55-17.76,9.4,0,16.72,4.53,20.38,13.32l-10.97,5.49c-2.61-6.18-6.88-6.88-9.4-6.88-4.18,0-7.4,1.65-7.4,5.66,0,1.57.43,4.44,6.53,6.53l6.44,2.26c13.67,4.27,16.11,12.45,16.2,18.03,0,12.8-11.15,18.46-21.86,18.46-11.67,0-22.29-6.62-23.51-17.94l12.02-2.35Z"></path></g><path d="M1088.25,346.61c-6.31-32.57-6.29-63.61,9.4-93.18,22.64-42.67,72.29-61.46,114.59-43.38,9.56,4.09,16.12,12.2,25.27,17.65.87-1.6,1.85-2.66,2.01-3.83q2.18-15.36,18.18-15.38c9.19,0,18.38.18,27.56-.05,6.27-.16,9.3,1.98,9.27,8.78-.25,64.64,1.13,129.33-.93,193.91-1.31,40.98-17.86,75.62-58.47,92.99-22.58,9.65-46.44,11.43-70.96,8.79-20.47-2.2-40.16-6.38-59.15-14.4-7.21-3.05-8.66-6.88-6.58-14.2,7.34-25.83,7.05-25.72,31.81-16.15,21.02,8.12,42.73,11.42,64.95,6.09,22.16-5.32,36.4-19.11,41.31-41.68,3.04-13.95,4.47-28.05,2.81-42.55-4.71-.24-6.91,3.13-9.56,5.47-45.1,39.79-110.62,25.33-134.72-29.86-2.57-5.9-4.4-12.12-6.81-19.02M1152.7,261.31c-14.04,31.98-13.16,63.91.58,95.69,7.13,16.5,20.05,26.19,37.8,26.57,16.82.36,28.78-9.8,36.38-24.06,16.15-30.33,16.72-61.88,4.08-93.42-6.56-16.38-19.59-25.82-37.41-27.5-18.07-1.7-31.61,5.77-41.43,22.72Z"></path><path d="M1349.14,228.32c34.69-24.39,71.9-31.8,111.93-19.64,29.46,8.95,44.97,30.88,45.65,61.66.59,26.52,1.12,53.04,1.51,79.56.27,18.05.82,36.07,5.28,53.65,1.77,6.96-.85,9.67-7.36,9.71-13.61.09-27.22.04-40.82.08-6.46.02-10.08-2.87-10.87-9.52-.5-4.26-1.73-8.43-2.68-12.86-5.47,1.3-7.93,5.25-11.26,7.94-21.93,17.73-46.77,24.58-73.49,15.01-37.45-13.41-49.68-64.39-24.13-95.51,16.34-19.91,38.88-29.22,62.56-36.24,14.91-4.42,30.15-7.73,45.14-11.52-1.93-26.81-24.95-35.6-42.79-33.22-14.15,1.88-26.78,7.74-37.88,16.57-5.66,4.5-9.39,4.1-12.91-2.26-2.46-4.45-5.57-8.54-8.36-12.81-2.17-3.32-3.66-6.67.47-10.58M1440.92,306.91c-4.28,1.09-8.63,1.95-12.82,3.3-13.6,4.39-27.37,8.63-37,20.23-9.28,11.18-9.79,27.89-1.4,38.74,7.78,10.06,22.2,11.67,36.27,5.78,21.35-8.94,32.86-43.79,25.34-68.95-3.01-1.23-5.94.02-10.41.9Z"></path><path d="M1010.61,377.82c9.36-2.63,17.58-5.88,25.34-10.19,4.88-2.71,8.14-1.6,10.71,3.4,14.39,27.93,16.08,22.91-11.29,34.62-35.08,15.02-71.18,18.4-106.8,1.32-41.76-20.02-63.54-67.26-56.67-117.62,9.31-68.23,74.89-98.63,132.3-81.42,26.2,7.86,41.17,26.48,49.42,51.5,3.63,11.01,5.5,22.4,6.88,33.91,2.09,17.51-3.2,24.18-20.87,24.29-31.99.2-63.99.05-95.98.05-14.92,0-15.58.83-12.59,15.81,6.5,32.59,36.26,51.98,70.7,46.07,2.68-.46,5.34-1.04,8.84-1.73M975.65,234.88c-32.58.31-39.86,19.21-44.57,41.81-1.02,4.91-.76,9.84,6.43,9.85,21.69,0,43.39.07,65.08.05,4.38,0,6.91-1.95,6.93-6.77.12-19.45-8.03-42.08-33.88-44.94Z"></path><path d="M691.45,210.45c30.35,13.05,41.41,38.62,47.11,67.79,1.1,5.65,1.41,11.46,2.23,17.18,2.66,18.49-8.04,22-21.07,22.15-25.18.28-50.37.11-75.55.12-8.17,0-16.36.4-24.5-.1-8.83-.54-10.37,3.52-9.07,11.2,6.95,40.88,41.16,60.65,83.62,48.11,7.52-2.22,15-4.68,21.59-9.02,5.34-3.52,8.63-2.15,11.31,3.25,12.84,25.86,16.94,22.73-11.78,34.77-30.3,12.71-61.77,17.11-93.61,6.19-42.05-14.43-64.36-45.64-69.59-88.63-3.33-27.38-.35-54.35,16.47-78.09,26.59-37.55,76.61-52.11,122.83-34.91M687.26,261.32c-3.83-12.96-11.5-22.14-25.2-25.2-25.98-5.81-46.76,10.33-50.07,38.38-1.01,8.56,1.05,12.64,10.57,12.3,15.24-.54,30.51-.08,45.76-.13,24.47-.07,24.47,3.22,18.94-25.36Z"></path><path d="M392.95,256.65c3.37-29.08,20.99-44.11,46.96-50.71,26.26-6.68,51.19-2.02,74.99,10.36,5.87,3.05,7.31,6.65,3.17,12.07-.82,1.08-1.48,2.28-2.17,3.46-9,15.47-8.92,15.25-25.55,9.19-9.27-3.38-18.78-5.85-28.79-2.2-12.87,4.7-16.57,15.35-8.96,26.73,5.79,8.66,14.18,14.6,22.23,20.85,11.55,8.97,23.32,17.69,33.64,28.12,29.31,29.63,22.97,74.65-14.38,93.05-36.26,17.86-71.87,13.43-105.6-8.32-5.6-3.61-7.23-7.74-3.07-13.49,4.76-6.59,6.41-16.94,13.51-19.82,8.12-3.3,13.55,7,20.69,10.42,8.4,4.01,17.05,7.82,26.23,7.15,10.16-.74,19.07-5.1,22.87-15.92,3.64-10.37-.4-18.69-7.29-25.97-8.22-8.69-18.29-15.19-27.67-22.52-6.16-4.82-12.26-9.71-18.37-14.58-15.09-12.03-22.43-27.78-22.45-47.87Z"></path><path d="M1556.95,149.93c.04-9.53.2-18.04.07-26.54-.09-6.12,1.83-9.42,8.77-9.32,10.87.15,21.74-.7,32.62-.76,13.89-.08,14.49.56,14.49,14.25.02,74.53-.01,149.05-.04,223.58,0,16.67-.45,33.36.06,50.02.29,9.52-3.66,12.74-12.67,12.36-10.19-.43-20.43-.5-30.62-.03-9.16.43-12.89-3-12.59-12.41.49-15.3.03-30.62.02-45.94-.05-68.06-.08-136.12-.12-205.2Z"></path><path d="M832.81,398.95c1.59,11.08-3.15,13.95-12.67,13.45-10.49-.55-21.05.35-31.58.5-6.9.1-10.28-2.63-10.27-10.35.17-92.82.12-185.64-.04-278.46-.01-6.94,2.43-9.83,9.52-9.67,12.55.27,25.12.08,37.68-.16,5.25-.1,7.52,2.15,7.29,7.28-.08,1.7.05,3.4.05,5.1.01,90.44.02,180.88.02,272.32Z"></path><g><path class="cls-1" d="M149.64,2.32c34.82,3.71,68.08,10.65,100.45,21.14,43.32,14.04,84.9,31.83,117.55,65.11,18.21,18.57,30.27,40.19,27.99,67.49-.27,3.19,1.09,6.93-2.54,9.13-3.16.09-4.08-2.16-5-4.36-15.77-37.68-46.64-55.46-84.61-62.79-57.12-11.02-110,.69-158.8,31.89-14.03,8.97-14.01,9.03-5.08,22.56,4.31,6.53,8.87,12.9,12.96,19.56,3.72,6.05,7.32,6.54,13.02,2.03,17.56-13.87,36.99-23.85,59.27-28.16,42.72-8.28,75.06,10.58,86.03,50.14,2.4,8.65.32,12.24-8.49,14.16-35.16,7.7-70.66,14.48-104.03,28.57-30.38,12.83-58.34,28.88-77.4,57.51-29.4,44.16-17.6,107.1,26.25,136.75,4.59,3.1,10.43,4.96,12.87,10.09-.28,2.78-1.79,3.81-3.49,3.88-42.42,1.71-82.36-4.69-113.57-36.97-19.82-20.49-28.82-46.23-34.97-73.58-7.47-33.25-5.57-66.99-6.82-100.52-1.33-35.32-2.34-70.78,1.17-106.06,2.94-29.48,7.41-58.67,21.82-85.32C39.85,15.65,64.05.98,96.81.13c17.35-.45,34.65.24,52.83,2.19Z"></path><path class="cls-1" d="M311.9,264.38c-.2,29.91-4.38,57.94-18.56,83.69-8,14.53-18.45,26.76-33.01,35.29-32.46,19.01-66.41.49-68.21-37.39-1.92-40.38,13.34-64.54,50.37-80.94,17.48-7.74,36.09-12.01,53.93-18.64,13.65-5.07,15.42-3.47,15.53,10.86.02,2.04-.02,4.08-.03,7.12Z"></path></g></svg>